<?xml version="1.0" standalone="no"?>
<!DOCTYPE svg PUBLIC "-//W3C//DTD SVG 20010904//EN"
 "http://www.w3.org/TR/2001/REC-SVG-20010904/DTD/svg10.dtd">
<svg version="1.0" xmlns="http://www.w3.org/2000/svg"
 width="360.000000pt" height="360.000000pt" viewBox="0 0 360.000000 360.000000"
 preserveAspectRatio="xMidYMid meet">

<g transform="translate(0.000000,360.000000) scale(0.100000,-0.100000)"
fill="#000000" stroke="none">
<path d="M320 3574 c-160 -43 -283 -181 -310 -348 -13 -82 -1 -163 36 -249 25
-57 71 -106 586 -622 l558 -560 -555 -555 c-511 -512 -556 -560 -585 -621 -61
-132 -60 -254 5 -385 85 -173 285 -267 474 -223 119 27 123 30 713 618 l558
555 557 -555 c538 -535 561 -556 630 -588 213 -96 458 -11 558 193 65 131 66
253 5 385 -29 61 -74 109 -585 621 l-555 555 558 560 c515 516 561 565 586
622 55 128 55 255 -2 371 -86 177 -291 275 -481 231 -119 -27 -123 -30 -713
-618 l-558 -555 -558 555 c-470 468 -566 559 -613 582 -104 49 -204 59 -309
31z"/>
</g>
</svg>
